<?xml version="1.0" encoding="utf-8"?>
<!-- Generator: Adobe Illustrator 15.1.0, SVG Export Plug-In . SVG Version: 6.00 Build 0)  -->
<!DOCTYPE svg PUBLIC "-//W3C//DTD SVG 1.1//EN" "http://www.w3.org/Graphics/SVG/1.1/DTD/svg11.dtd">
<svg version="1.1" id="Layer_1" xmlns="http://www.w3.org/2000/svg" xmlns:xlink="http://www.w3.org/1999/xlink" x="0px" y="0px"
	 width="287.101px" height="57.599px" viewBox="0 0 287.101 57.599" enable-background="new 0 0 287.101 57.599"
	 xml:space="preserve">
<g>
	<path fill="#FFFFFF" d="M17.993,8.344L28.95,39.281L39.849,8.344h11.543V51h-8.818V39.34l0.879-20.127L31.938,51h-6.035
		L14.419,19.242l0.879,20.098V51H6.509V8.344H17.993z"/>
	<path fill="#FFFFFF" d="M105.862,40.658l5.889-21.357h8.848L109.905,51h-8.086L91.126,19.301h8.848L105.862,40.658z"/>
	<path fill="#FFFFFF" d="M124.261,11.098c0-1.27,0.425-2.314,1.274-3.135s2.007-1.23,3.472-1.23c1.445,0,2.597,0.41,3.457,1.23
		c0.859,0.82,1.289,1.865,1.289,3.135c0,1.289-0.435,2.344-1.304,3.164c-0.869,0.82-2.017,1.23-3.442,1.23
		c-1.426,0-2.574-0.41-3.442-1.23C124.695,13.441,124.261,12.387,124.261,11.098z M133.255,51h-8.496V19.301h8.496V51z"/>
	<path fill="#FFFFFF" d="M154.817,51.586c-4.648,0-8.433-1.425-11.353-4.277c-2.92-2.852-4.38-6.65-4.38-11.396v-0.82
		c0-3.183,0.615-6.03,1.846-8.54c1.23-2.509,2.974-4.443,5.229-5.801c2.256-1.357,4.829-2.036,7.72-2.036
		c4.336,0,7.749,1.367,10.239,4.102c2.49,2.735,3.735,6.611,3.735,11.631v3.457h-20.186c0.273,2.07,1.099,3.731,2.476,4.98
		c1.377,1.25,3.12,1.875,5.229,1.875c3.262,0,5.811-1.182,7.646-3.545l4.16,4.658c-1.27,1.797-2.988,3.198-5.156,4.204
		S157.454,51.586,154.817,51.586z M153.851,25.541c-1.68,0-3.042,0.569-4.087,1.707c-1.045,1.138-1.714,2.766-2.007,4.885h11.777
		v-0.677c-0.04-1.883-0.547-3.34-1.523-4.37C157.034,26.056,155.647,25.541,153.851,25.541z"/>
	<path fill="#FFFFFF" d="M181.595,51h-8.496V6h8.496V51z"/>
	<path fill="#FFFFFF" d="M188.509,11.098c0-1.27,0.425-2.314,1.274-3.135s2.007-1.23,3.472-1.23c1.445,0,2.597,0.41,3.457,1.23
		c0.859,0.82,1.289,1.865,1.289,3.135c0,1.289-0.435,2.344-1.304,3.164c-0.869,0.82-2.017,1.23-3.442,1.23
		c-1.426,0-2.574-0.41-3.442-1.23C188.943,13.441,188.509,12.387,188.509,11.098z M197.503,51h-8.496V19.301h8.496V51z"/>
	<path fill="#FFFFFF" d="M221.644,42.24c0-1.035-0.513-1.85-1.538-2.446c-1.025-0.596-2.671-1.128-4.937-1.597
		c-7.54-1.582-11.309-4.785-11.309-9.609c0-2.813,1.167-5.161,3.501-7.046c2.333-1.885,5.386-2.827,9.155-2.827
		c4.023,0,7.241,0.948,9.653,2.842c2.412,1.895,3.618,4.355,3.618,7.383h-8.467c0-1.211-0.391-2.212-1.172-3.003
		c-0.781-0.791-2.002-1.187-3.662-1.187c-1.426,0-2.53,0.322-3.311,0.967c-0.781,0.645-1.172,1.465-1.172,2.461
		c0,0.938,0.444,1.695,1.333,2.271c0.889,0.576,2.388,1.074,4.497,1.494c2.109,0.42,3.886,0.894,5.332,1.421
		c4.472,1.641,6.709,4.482,6.709,8.525c0,2.891-1.241,5.229-3.721,7.017c-2.48,1.787-5.684,2.681-9.609,2.681
		c-2.656,0-5.015-0.474-7.075-1.421c-2.061-0.947-3.677-2.246-4.849-3.896c-1.172-1.65-1.758-3.432-1.758-5.347h8.027
		c0.078,1.504,0.634,2.656,1.67,3.457c1.035,0.801,2.421,1.201,4.16,1.201c1.621,0,2.846-0.308,3.677-0.923
		C221.229,44.042,221.644,43.236,221.644,42.24z"/>
	<path fill="#FFFFFF" d="M245.462,11.508v7.793h5.42v6.211h-5.42v15.82c0,1.172,0.224,2.012,0.674,2.52
		c0.449,0.508,1.308,0.762,2.578,0.762c0.938,0,1.768-0.068,2.49-0.205v6.416c-1.66,0.508-3.369,0.762-5.127,0.762
		c-5.938,0-8.965-2.998-9.082-8.994v-17.08h-4.629v-6.211h4.629v-7.793H245.462z"/>
	<path fill="#FFFFFF" d="M272.767,42.24c0-1.035-0.513-1.85-1.538-2.446c-1.025-0.596-2.671-1.128-4.937-1.597
		c-7.54-1.582-11.309-4.785-11.309-9.609c0-2.813,1.167-5.161,3.501-7.046c2.333-1.885,5.386-2.827,9.155-2.827
		c4.023,0,7.241,0.948,9.653,2.842c2.412,1.895,3.618,4.355,3.618,7.383h-8.467c0-1.211-0.391-2.212-1.172-3.003
		c-0.781-0.791-2.002-1.187-3.662-1.187c-1.426,0-2.53,0.322-3.311,0.967c-0.781,0.645-1.172,1.465-1.172,2.461
		c0,0.938,0.444,1.695,1.333,2.271c0.889,0.576,2.388,1.074,4.497,1.494c2.109,0.42,3.886,0.894,5.332,1.421
		c4.472,1.641,6.709,4.482,6.709,8.525c0,2.891-1.241,5.229-3.721,7.017c-2.48,1.787-5.684,2.681-9.609,2.681
		c-2.656,0-5.015-0.474-7.075-1.421c-2.061-0.947-3.677-2.246-4.849-3.896c-1.172-1.65-1.758-3.432-1.758-5.347h8.027
		c0.078,1.504,0.634,2.656,1.67,3.457c1.035,0.801,2.421,1.201,4.16,1.201c1.621,0,2.846-0.308,3.677-0.923
		C272.352,44.042,272.767,43.236,272.767,42.24z"/>
	<path fill="#FFFFFF" d="M73.45,18.541c-8.87,0-16.059,7.188-16.059,16.06c0,8.869,7.189,16.059,16.059,16.059
		c8.871,0,16.06-7.189,16.06-16.059C89.51,25.729,82.321,18.541,73.45,18.541z M69.172,42.743V26.456l12.574,8.144L69.172,42.743z"
		/>
</g>
</svg>
